<svg xmlns="http://www.w3.org/2000/svg" viewBox="0 0 640 420" role="img" aria-label="Indian male mentor portrait">
  <defs>
    <linearGradient id="bg1" x1="0" y1="0" x2="1" y2="1">
      <stop offset="0%" stop-color="#0ea5e9"/>
      <stop offset="100%" stop-color="#1d4ed8"/>
    </linearGradient>
  </defs>
  <rect width="640" height="420" rx="36" fill="url(#bg1)"/>
  <circle cx="320" cy="162" r="92" fill="#8d5a3c"/>
  <ellipse cx="320" cy="290" rx="150" ry="110" fill="#0f3d66"/>
  <path d="M236 132c16-46 56-74 92-74s74 24 88 68c-23-10-40-12-64-12-42 0-72 8-116 18z" fill="#1e1b1a"/>
  <rect x="255" y="148" width="54" height="34" rx="10" fill="none" stroke="#dbeafe" stroke-width="6"/>
  <rect x="331" y="148" width="54" height="34" rx="10" fill="none" stroke="#dbeafe" stroke-width="6"/>
  <rect x="309" y="162" width="22" height="5" rx="2.5" fill="#dbeafe"/>
  <circle cx="282" cy="165" r="5" fill="#111827"/>
  <circle cx="358" cy="165" r="5" fill="#111827"/>
  <path d="M296 207c14 14 34 16 48 0" fill="none" stroke="#5f2f1f" stroke-width="6" stroke-linecap="round"/>
  <text x="320" y="390" text-anchor="middle" font-size="28" font-family="Arial, sans-serif" font-weight="700" fill="#e2e8f0">AI Automation Mentor</text>
</svg>
